# xmcd
#
# Track frame offsets: 
#        150
#        16940
#        35286
#        51555
#        69638
#        87234
#        110447
#        129363
#        147777
#        164383
#        182451
#        196358
#        210594
#
# Disc length: 3006 seconds
#
# Revision: 0
# Processed by: cddbd v1.5.2PL0 Copyright (c) Steve Scherf et al.
# Submitted via: ExactAudioCopy v0.99pb4
#
DISCID=b00bbc0d
DTITLE=Get It On - Mark McKinney
DYEAR=2008
DGENRE=Country
TTITLE0=Comfortable In This Skin
TTITLE1=Stompin' Ground
TTITLE2=Party Foul
TTITLE3=Fall
TTITLE4=Story Of My Life
TTITLE5=Bonfire
TTITLE6=Get Your Country On
TTITLE7=Reckless In Texas
TTITLE8=Addicted
TTITLE9=Deal Breaker
TTITLE10=Stranger Things
TTITLE11=Are We Doing This
TTITLE12=The Myspace Song
EXTD=
EXTT0=
EXTT1=
EXTT2=
EXTT3=
EXTT4=
EXTT5=
EXTT6=
EXTT7=
EXTT8=
EXTT9=
EXTT10=
EXTT11=
EXTT12=
PLAYORDER=
